<?xml version="1.0" encoding="UTF-8"?>
<svg id="Layer_2" data-name="Layer 2" xmlns="http://www.w3.org/2000/svg" xmlns:xlink="http://www.w3.org/1999/xlink" viewBox="0 0 45.24 48">
  <defs>
    <style>
      .cls-1 {
        fill: url(#linear-gradient);
      }
    </style>
    <linearGradient id="linear-gradient" x1="0" y1="24" x2="45.24" y2="24" gradientUnits="userSpaceOnUse">
      <stop offset="0" stop-color="#abd037"/>
      <stop offset=".19" stop-color="#a2c737"/>
      <stop offset=".51" stop-color="#8bae37"/>
      <stop offset=".9" stop-color="#668737"/>
      <stop offset="1" stop-color="#5c7c37"/>
    </linearGradient>
  </defs>
  <g id="Layer_1-2" data-name="Layer 1">
    <path class="cls-1" d="M28.9,19.19s-.03,0-.02-.02c.07-2.17.11-4.53.12-7.09,0-.01,0-.02.02-.02,3.53-1.05,10.77-3.91,10.6-9.77C39.57.98,38.48-.03,37.2,0c-1.29.04-2.31,1.12-2.27,2.41.06,1.97-3.12,3.68-5.91,4.7-.02,0-.03,0-.03-.02,0-.67-.01-1.34-.03-2.04-.02-1.28-1.06-2.31-2.34-2.31-.01,0-.02,0-.04,0-1.29.02-2.33,1.08-2.31,2.38.02,1.13.03,2.22.04,3.29,0,.01,0,.02-.02.02l-10.58,2.73c-.78.2-1.4.78-1.64,1.54l-4.33,13.32c-.5,1.54-.09,3.27,1.16,4.31,1.39,1.16,3.36,1.2,4.8.15,3.42-2.51,7.31-4.21,10.19-5.24.02,0,.03,0,.03.02-.23,3.74-.52,6.64-.8,8.81,0,.01-.02.02-.03.02-4.67-1.15-8.92-.98-12.72.54C2.98,37.58.26,44.53.15,44.83c-.46,1.21.15,2.56,1.36,3.02.27.1.55.15.83.15.94,0,1.83-.58,2.19-1.51.02-.05,2.07-5.32,7.57-7.51,2.95-1.18,6.38-1.26,10.22-.25.01,0,.02.02.02.03-.06.3-.11.47-.13.53,0,0,0,0,0,0-.1.29-.71,1.89-2.33,2.22.02-.12.03-.24.03-.36,0-1.29-1.05-2.33-2.33-2.33-1.03,0-1.9.67-2.21,1.6h0c-.11.33-.62,2.1.44,3.75.52.81,1.59,1.83,3.71,2.06.26.01.43.02.46,0,0,0,0,0,0,0,4.12-.37,6.17-3.7,6.75-5.63,0-.03.04-.13.08-.3.4.18.8.36,1.21.56.71.38,5.72,2.88,10.42,1,2.98-1.19,5.11-3.77,6.32-7.67.01-.05.03-.1.04-.14,1.37-5.56-.63-9.02-2.55-10.93-3.35-3.35-8.76-4.34-13.34-3.93ZM24.15,20.18s0,.02-.02.02c-2.95.93-7.17,2.55-11.2,5.12-.02.01-.04,0-.03-.03l.75-2.32s0-.01.01-.01l4.25-1.8c1.11-.47,1.77-1.68,1.43-2.84-.4-1.37-1.89-2.05-3.16-1.51l-.61.26.55-1.68s0-.01.02-.02l8.14-2.1s.03,0,.03.02c-.02,2.5-.08,4.79-.15,6.88ZM40.26,32.86s0,0,0,0c-.77,2.44-1.97,4-3.55,4.64-2.89,1.17-6.47-.76-6.5-.78-.04-.02-.08-.05-.13-.07-.82-.39-1.63-.75-2.42-1.07,0,0-.02-.01-.01-.02.37-2.65.77-6.45,1.04-11.64,0-.01,0-.02.02-.02,4.45-.62,8.4.7,10.23,2.52,1.56,1.56,1.99,3.66,1.33,6.43Z"/>
  </g>
</svg>